<?xml version="1.0" encoding="UTF-8" standalone="no"?>
<svg
   xmlns:dc="http://purl.org/dc/elements/1.1/"
   xmlns:cc="http://creativecommons.org/ns#"
   xmlns:rdf="http://www.w3.org/1999/02/22-rdf-syntax-ns#"
   xmlns:svg="http://www.w3.org/2000/svg"
   xmlns="http://www.w3.org/2000/svg"
   id="svg8"
   version="1.1"
   viewBox="0 0 210 297"
   height="297mm"
   width="210mm">
  <defs
     id="defs2" />
  <metadata
     id="metadata5">
    <rdf:RDF>
      <cc:Work
         rdf:about="">
        <dc:format>image/svg+xml</dc:format>
        <dc:type
           rdf:resource="http://purl.org/dc/dcmitype/StillImage" />
        <dc:title></dc:title>
      </cc:Work>
    </rdf:RDF>
  </metadata>
  <g
     style="display:inline"
     id="layer2">
    <path
       id="rect3764"
       d="m 16.014681,49.289497 h 30 v 30 h -30 z"
       style="fill:#000000;stroke-width:0.26458332" />
  </g>
  <g
     style="display:inline"
     id="layer6" />
  <g
     style="display:inline"
     id="layer7" />
  <g
     style="display:inline;opacity:1"
     id="layer1">
    <text
       id="text3707"
       y="88.702881"
       x="32.781471"
       style="font-style:normal;font-weight:normal;font-size:10.58333302px;line-height:1.25;font-family:sans-serif;letter-spacing:0px;word-spacing:0px;fill:#000000;fill-opacity:1;stroke:none;stroke-width:0.26458332"
       xml:space="preserve"><tspan
         id="tspan3725"
         style="font-style:normal;font-variant:normal;font-weight:normal;font-stretch:normal;font-family:'Nova Mono';-inkscape-font-specification:'Nova Mono';stroke-width:0.26458332"
         y="98.06665"
         x="32.781471" /></text>
    <g
       id="text3719"
       style="font-style:normal;font-weight:normal;font-size:10.58333302px;line-height:1.25;font-family:sans-serif;letter-spacing:0px;word-spacing:0px;fill:#000000;fill-opacity:1;stroke:none;stroke-width:0.26458332"
       aria-label="quadrat">
      <path
         id="path128"
         style="font-style:normal;font-variant:normal;font-weight:normal;font-stretch:normal;font-size:21.16666603px;font-family:'Share Tech Mono';-inkscape-font-specification:'Share Tech Mono';stroke-width:0.26458332"
         d="m 94.068391,62.688964 q -0.656166,0.423333 -1.5875,0.423333 h -0.867833 q -1.862667,0 -2.7305,-0.783167 -0.867833,-0.804333 -0.867833,-2.6035 v -3.809999 q 0,-1.778 0.867833,-2.582334 0.889,-0.804333 2.7305,-0.804333 h 4.2545 V 66.71063 h -1.799167 z m -1.375833,-1.164167 q 0.6985,0 1.037167,-0.359833 0.338666,-0.381 0.338666,-0.804334 v -6.244166 h -2.667 q -0.783166,0 -1.185333,0.359833 -0.402167,0.359834 -0.402167,1.016 v 4.656667 q 0,0.656166 0.402167,1.016 0.402167,0.359833 1.185333,0.359833 z" />
      <path
         id="path130"
         style="font-style:normal;font-variant:normal;font-weight:normal;font-stretch:normal;font-size:21.16666603px;font-family:'Share Tech Mono';-inkscape-font-specification:'Share Tech Mono';stroke-width:0.26458332"
         d="m 105.41505,62.625464 q -0.6985,0.486833 -1.69334,0.486833 h -0.71966 q -1.7145,0 -2.56117,-0.804333 -0.825499,-0.804334 -0.825499,-2.582334 v -7.196666 h 1.799169 v 7.62 q 0,0.635 0.35983,1.016 0.381,0.359833 1.016,0.359833 h 1.143 q 0.67733,0 0.99483,-0.338667 0.33867,-0.338666 0.381,-0.762 v -7.895166 h 1.79917 v 10.583333 h -1.69333 z" />
      <path
         id="path132"
         style="font-style:normal;font-variant:normal;font-weight:normal;font-stretch:normal;font-size:21.16666603px;font-family:'Share Tech Mono';-inkscape-font-specification:'Share Tech Mono';stroke-width:0.26458332"
         d="m 117.88354,63.112297 q -0.27517,0 -0.61384,-0.169333 -0.3175,-0.169334 -0.55033,-0.465667 -0.48683,0.635 -1.29117,0.635 h -1.88383 q -1.60867,0 -2.3495,-0.635 -0.71967,-0.656167 -0.71967,-2.2225 v -0.423333 q 0,-3.280833 3.09034,-3.280833 h 2.62466 v -1.058334 q 0,-0.656166 -0.40216,-1.016 -0.40217,-0.359833 -1.18534,-0.359833 h -3.28083 v -1.5875 h 3.06917 q 1.8415,0 2.70933,0.804333 0.889,0.804334 0.889,2.582334 v 5.079999 q 0,0.3175 0.23283,0.486834 0.254,0.148166 0.8255,0.148166 v 1.481667 z m -2.667,-1.5875 q 0.635,0 0.80433,-0.296333 0.16933,-0.296334 0.16933,-0.762 v -2.328333 h -2.64583 q -0.55033,0 -0.91017,0.359833 -0.35983,0.359833 -0.35983,0.910167 v 1.058333 q 0,0.550333 0.254,0.804333 0.254,0.254 0.80433,0.254 z" />
      <path
         id="path134"
         style="font-style:normal;font-variant:normal;font-weight:normal;font-stretch:normal;font-size:21.16666603px;font-family:'Share Tech Mono';-inkscape-font-specification:'Share Tech Mono';stroke-width:0.26458332"
         d="m 128.40469,62.625464 q -0.6985,0.486833 -1.69333,0.486833 h -0.86783 q -1.86267,0 -2.7305,-0.783167 -0.86784,-0.804333 -0.86784,-2.6035 v -3.809999 q 0,-1.778 0.86784,-2.582334 0.889,-0.804333 2.7305,-0.804333 h 2.45533 v -4.233333 h 1.79917 v 14.816666 h -1.69334 z m -1.48166,-1.100667 q 0.6985,0 1.03716,-0.359833 0.33867,-0.381 0.33867,-0.804334 v -6.244166 h -2.667 q -0.78317,0 -1.18533,0.359833 -0.40217,0.359834 -0.40217,1.016 v 4.656667 q 0,0.656166 0.40217,1.016 0.40216,0.359833 1.18533,0.359833 z" />
      <path
         id="path136"
         style="font-style:normal;font-variant:normal;font-weight:normal;font-stretch:normal;font-size:21.16666603px;font-family:'Share Tech Mono';-inkscape-font-specification:'Share Tech Mono';stroke-width:0.26458332"
         d="m 135.53918,61.524797 v -7.408333 h -1.54516 v -1.5875 h 3.2385 v 0.5715 q 0.6985,-0.5715 1.69333,-0.5715 h 2.18017 v 1.693333 h -2.39184 q -0.67733,0 -1.016,0.4445 -0.33866,0.423334 -0.35983,0.867834 v 5.990166 h 2.30717 v 1.5875 h -5.6515 v -1.5875 z" />
      <path
         id="path138"
         style="font-style:normal;font-variant:normal;font-weight:normal;font-stretch:normal;font-size:21.16666603px;font-family:'Share Tech Mono';-inkscape-font-specification:'Share Tech Mono';stroke-width:0.26458332"
         d="m 152.11401,63.112297 q -0.27517,0 -0.61384,-0.169333 -0.3175,-0.169334 -0.55033,-0.465667 -0.48683,0.635 -1.29117,0.635 h -1.88383 q -1.60867,0 -2.3495,-0.635 -0.71967,-0.656167 -0.71967,-2.2225 v -0.423333 q 0,-3.280833 3.09034,-3.280833 h 2.62466 v -1.058334 q 0,-0.656166 -0.40216,-1.016 -0.40217,-0.359833 -1.18534,-0.359833 h -3.28083 v -1.5875 h 3.06917 q 1.8415,0 2.70933,0.804333 0.889,0.804334 0.889,2.582334 v 5.079999 q 0,0.3175 0.23283,0.486834 0.254,0.148166 0.8255,0.148166 v 1.481667 z m -2.667,-1.5875 q 0.635,0 0.80433,-0.296333 0.16933,-0.296334 0.16933,-0.762 v -2.328333 h -2.64583 q -0.55033,0 -0.91017,0.359833 -0.35983,0.359833 -0.35983,0.910167 v 1.058333 q 0,0.550333 0.254,0.804333 0.254,0.254 0.80433,0.254 z" />
      <path
         id="path140"
         style="font-style:normal;font-variant:normal;font-weight:normal;font-stretch:normal;font-size:21.16666603px;font-family:'Share Tech Mono';-inkscape-font-specification:'Share Tech Mono';stroke-width:0.26458332"
         d="m 161.19583,63.112297 q -1.0795,0 -1.651,-0.6985 -0.5715,-0.6985 -0.5715,-1.8415 v -6.455833 h -2.01083 v -1.5875 h 2.01083 v -2.54 h 1.79917 v 2.54 h 3.09033 v 1.5875 h -3.09033 v 6.561666 q 0,0.465667 0.23283,0.656167 0.23283,0.1905 0.71967,0.1905 h 2.13783 v 1.5875 z" />
    </g>
    <text
       id="text3723"
       y="114.45492"
       x="154.74905"
       style="font-style:normal;font-weight:normal;font-size:10.58333302px;line-height:1.25;font-family:sans-serif;letter-spacing:0px;word-spacing:0px;fill:#000000;fill-opacity:1;stroke:none;stroke-width:0.26458332"
       xml:space="preserve"><tspan
         style="stroke-width:0.26458332"
         y="123.81869"
         x="154.74905"
         id="tspan3721" /></text>
    <flowRoot
       style="font-style:normal;font-weight:normal;font-size:40px;line-height:1.25;font-family:sans-serif;letter-spacing:0px;word-spacing:0px;fill:#000000;fill-opacity:1;stroke:none"
       id="flowRoot3729"
       xml:space="preserve"><flowRegion
         id="flowRegion3731"><rect
           y="205.30118"
           x="667.71082"
           height="117.1777"
           width="293.95438"
           id="rect3733" /></flowRegion><flowPara
         id="flowPara3735" /></flowRoot>    <g
       transform="translate(-0.14447708,0.26727758)"
       id="text3739"
       style="font-style:normal;font-weight:normal;font-size:10.58333302px;line-height:1.25;font-family:sans-serif;letter-spacing:0px;word-spacing:0px;fill:#000000;fill-opacity:1;stroke:none;stroke-width:0.26458332"
       aria-label="mach">
      <path
         id="path119"
         style="fill:#ffffff"
         d="m 33.264407,63.193333 v 0.649111 q 0.733778,-0.649111 1.749778,-0.649111 h 0.169333 q 1.975556,0 2.794,1.128889 0.931333,-1.128889 2.455333,-1.128889 h 0.169334 q 1.721555,0 2.54,0.874889 0.818444,0.874888 0.818444,3.104444 V 77.304443 H 41.702851 V 67.144444 q 0,-1.157111 -0.254,-1.608667 -0.225777,-0.451555 -1.072444,-0.451555 h -0.169333 q -0.846667,0 -1.185334,0.592666 -0.310444,0.564445 -0.338666,1.27 V 77.304443 H 36.425296 V 67.144444 q 0,-1.185334 -0.282222,-1.608667 -0.282222,-0.451555 -1.016,-0.451555 H 34.95774 q -0.846666,0 -1.185333,0.507999 -0.338667,0.479778 -0.366889,1.100667 v 10.611555 h -2.257777 v -14.11111 z" />
      <path
         id="path121"
         style="font-style:normal;font-variant:normal;font-weight:normal;font-stretch:normal;font-size:28.22222137px;font-family:'Share Tech Mono';-inkscape-font-specification:'Share Tech Mono';fill:#000000;stroke-width:0.26458332"
         d="m 56.916392,77.304443 q -0.366889,0 -0.818444,-0.225777 -0.423333,-0.225778 -0.733778,-0.620889 -0.649111,0.846666 -1.721555,0.846666 h -2.511778 q -2.144889,0 -3.132667,-0.846666 -0.959555,-0.874889 -0.959555,-2.963334 v -0.564444 q 0,-4.374444 4.120444,-4.374444 h 3.499556 v -1.411111 q 0,-0.874889 -0.536223,-1.354667 -0.536222,-0.479778 -1.580444,-0.479778 h -4.374444 v -2.116666 h 4.092222 q 2.455333,0 3.612444,1.072444 1.185333,1.072444 1.185333,3.443111 v 6.773333 q 0,0.423334 0.310445,0.649111 0.338667,0.197556 1.100667,0.197556 v 1.975555 z m -3.556,-2.116666 q 0.846667,0 1.072445,-0.395111 0.225778,-0.395111 0.225778,-1.016 v -3.104445 h -3.527778 q -0.733778,0 -1.213556,0.479778 -0.479777,0.479778 -0.479777,1.213556 v 1.411111 q 0,0.733777 0.338666,1.072444 0.338667,0.338667 1.072445,0.338667 z" />
      <path
         id="path123"
         style="font-style:normal;font-variant:normal;font-weight:normal;font-stretch:normal;font-size:28.22222137px;font-family:'Share Tech Mono';-inkscape-font-specification:'Share Tech Mono';fill:#000000;stroke-width:0.26458332"
         d="m 68.545711,77.304443 q -2.483555,0 -3.640666,-1.044222 -1.157111,-1.072444 -1.157111,-3.471333 v -5.08 q 0,-2.370667 1.157111,-3.443111 1.185333,-1.072444 3.640666,-1.072444 h 3.640667 v 2.116666 h -3.922889 q -1.044222,0 -1.580444,0.479778 -0.536223,0.479778 -0.536223,1.354667 v 6.208888 q 0,0.874889 0.536223,1.354667 0.536222,0.479778 1.580444,0.479778 h 3.922889 v 2.116666 z" />
      <path
         id="path125"
         style="font-style:normal;font-variant:normal;font-weight:normal;font-stretch:normal;font-size:28.22222137px;font-family:'Share Tech Mono';-inkscape-font-specification:'Share Tech Mono';fill:#000000;stroke-width:0.26458332"
         d="m 80.429032,57.548888 v 6.208889 q 0.846667,-0.564444 2.116667,-0.564444 h 1.298222 q 2.286,0 3.386666,1.072444 1.128889,1.072444 1.128889,3.443111 v 9.595555 H 85.960587 V 67.144444 q 0,-0.846667 -0.507999,-1.326445 -0.479778,-0.508 -1.326445,-0.508 h -1.862667 q -0.903111,0 -1.354666,0.479778 -0.451556,0.451556 -0.479778,0.987778 V 77.304443 H 78.030143 V 57.548888 Z" />
    </g>
  </g>
  <g
     style="display:none"
     id="layer5" />
  <g
     style="display:none"
     id="layer4" />
</svg>
